<svg width="929" height="654" viewBox="0 0 929 654" fill="none" xmlns="http://www.w3.org/2000/svg">
<mask id="mask0_512_352" style="mask-type:alpha" maskUnits="userSpaceOnUse" x="0" y="0" width="929" height="654">
<rect width="929" height="654" fill="#C4C4C4"/>
</mask>
<g mask="url(#mask0_512_352)">
<path opacity="0.15" d="M315.784 222.363C403.846 551.013 680.362 375.841 819.197 525.484C958.032 675.127 1164.73 373.065 1117.78 125.535C1041.41 -277.022 745.789 -273.691 616.273 -231.84C486.756 -189.989 245.335 -40.5571 315.784 222.363Z" fill="url(#paint0_linear_512_352)"/>
<path d="M47.4119 179.251C-69.02 51.9217 51.1244 -110.542 155.634 -246.668C327.347 -470.329 570.949 -528.07 799.129 -362.409C1004.67 -213.181 1047.5 46.4872 934.204 273.825C860.328 422.07 739.287 505.511 669.969 509.238C583.322 513.896 589.943 415.476 513.149 298.368C410.644 149.404 173.438 317.073 47.4119 179.251Z" fill="url(#paint1_linear_512_352)"/>
<path d="M645.964 382.071C350.627 437.342 435.856 -30.9295 65.2339 -122.618C-305.388 -214.306 -107.238 -481.422 8.44614 -565.214C250.174 -740.301 519.677 -806.739 768.835 -642.396C1062.22 -448.881 1158.6 7.80295 901.747 247.703C819.287 324.721 756.872 361.315 645.964 382.071Z" stroke="#2296F3" stroke-width="4"/>
</g>
<defs>
<linearGradient id="paint0_linear_512_352" x1="1124.58" y1="-250.266" x2="308.968" y2="571.135" gradientUnits="userSpaceOnUse">
<stop stop-color="#E040FB"/>
<stop offset="1" stop-color="#8E24AA"/>
</linearGradient>
<linearGradient id="paint1_linear_512_352" x1="843.455" y1="508.932" x2="969.592" y2="-69.0251" gradientUnits="userSpaceOnUse">
<stop stop-color="#FF5722"/>
<stop offset="1" stop-color="#FF9800"/>
</linearGradient>
</defs>
</svg>
